
            <svg width="3212.3325420035226" height="1014.7749181472295" xmlns="http://www.w3.org/2000/svg" xmlns:xlink="http://www.w3.org/1999/xlink" version="1.1">
                <g transform="scale(10.616627100176128) translate(10, 10)">
                    <g id="SvgjsG1052" rel="mainfill" name="main_text" transform="translate(83.98760304183659,-31.15222711563112)" fill="#f81616"><path fill="#f81616" d="M4.992 55.224000000000004 c0.78 3.822 0.078 7.722 0.312 11.544 c0.234 3.042 0.312 6.084 0.078 9.204 c-0.078 1.404 -0.702 2.106 -2.262 2.106 c-2.106 0 -2.964 -0.468 -3.042 -2.184 c0 -2.028 0.156 -4.056 0.468 -6.084 c0.312 -2.496 -0.156 -4.914 -0.39 -7.332 c-0.078 -1.248 -0.312 -2.34 0.312 -3.51 c0.078 -0.156 0.156 -0.39 0.156 -0.624 c-0.312 -2.418 -0.234 -4.914 -0.234 -7.41 c0 -3.198 -0.156 -6.474 -0.078 -9.672 l0 -3.9 c0.078 -1.716 0.702 -2.184 2.886 -2.496 c1.56 -0.234 1.482 0.936 1.794 1.872 c1.872 5.07 2.808 10.452 4.68 15.522 c0.858 2.34 1.326 4.914 1.794 7.41 c0.468 2.262 1.56 4.212 1.95 6.552 c0.312 -3.978 2.262 -7.488 2.964 -11.31 c0.546 -3.12 1.794 -6.24 2.808 -9.282 c0.624 -1.794 0.702 -3.666 1.092 -5.538 c0.312 -1.404 0.78 -2.73 1.404 -4.056 s1.716 -1.56 2.964 -1.326 c1.326 0.234 1.638 1.17 1.638 2.418 c0 6.084 0.078 12.168 0 18.252 c0 3.822 0 7.644 -0.078 11.544 c-0.078 2.184 0.39 4.602 0.39 6.942 c0 0.702 0 1.326 -0.156 1.95 c-0.234 1.404 -1.404 2.34 -2.73 2.184 s-2.574 -1.56 -2.418 -2.808 c0.39 -5.226 0 -10.452 0 -15.678 c0 -0.624 0.156 -1.326 -0.312 -1.95 c-0.624 0.234 -0.624 0.858 -0.624 1.248 c0 2.262 -1.482 4.056 -1.56 6.396 c-0.078 1.716 -1.404 3.51 -1.638 5.382 c-0.156 2.028 -0.858 3.822 -1.482 5.694 c-0.39 1.17 -1.248 1.716 -2.418 1.794 s-1.638 -0.468 -2.106 -1.56 c-1.248 -3.042 -1.95 -6.162 -2.574 -9.36 c-0.546 -2.886 -1.716 -5.694 -2.73 -8.502 c-0.39 -1.17 -0.468 -2.34 -0.858 -3.432 z M39.312 70.98 c-3.276 0 -5.772 -1.092 -8.034 -3.276 c-1.482 -1.404 -1.872 -3.198 -2.106 -5.148 c-0.234 -2.106 0.234 -4.212 0 -6.318 c-0.312 -2.964 -0.078 -5.85 0.624 -8.736 c0.702 -3.12 3.198 -5.226 6.318 -5.46 c1.092 -0.078 1.872 -1.014 2.73 -0.702 c3.354 0.078 7.41 3.666 8.112 6.708 c0.858 3.744 0.624 7.488 0.546 11.31 c-0.078 1.56 -0.078 3.198 -0.312 4.836 c-0.39 3.276 -4.758 6.708 -7.878 6.786 z M33.774 51.012 l0 9.75 c-0.078 3.354 2.028 5.46 4.524 5.304 c2.418 -0.156 3.978 -1.95 4.134 -4.212 c0.234 -3.276 0 -6.63 0.39 -9.906 c0.156 -1.794 -0.234 -3.588 -1.716 -4.68 c-1.404 -1.014 -2.964 -1.248 -4.68 -0.39 c-1.638 0.936 -2.652 2.262 -2.652 4.134 z M31.122 39.624 c-1.482 -0.234 -2.184 -1.014 -2.184 -2.418 c0 -1.326 1.248 -2.73 2.574 -2.574 c2.964 0.546 5.928 -0.234 8.97 0.234 c1.326 0.234 2.652 0.078 4.056 -0.078 c1.482 -0.156 2.652 0.624 2.886 2.028 c0.234 1.482 -0.468 2.34 -2.184 2.574 c-1.326 0.234 -2.73 0.39 -3.432 0.546 c-3.978 -0.234 -7.332 0.234 -10.686 -0.312 z M45.629999999999995 73.32 c1.092 0.39 2.184 1.014 2.106 2.418 c-0.078 1.17 -1.56 2.34 -2.73 2.34 c-1.872 -0.546 -3.9 0.078 -5.772 -0.39 c-1.014 -0.234 -1.716 0.39 -2.652 0.468 c-1.95 0.156 -3.9 -0.234 -5.772 -0.702 c-1.326 -0.312 -1.638 -1.404 -1.56 -2.574 c0 -1.248 0.78 -2.028 1.872 -1.95 c3.042 0.156 6.162 -0.546 9.204 0.156 c1.716 0.39 3.588 -0.468 5.304 0.234 z M60.528 70.98 c-3.276 0 -5.772 -1.092 -8.034 -3.276 c-1.482 -1.404 -1.872 -3.198 -2.106 -5.148 c-0.234 -2.106 0.234 -4.212 0 -6.318 c-0.312 -2.964 -0.078 -5.85 0.624 -8.736 c0.702 -3.12 3.198 -5.226 6.318 -5.46 c1.092 -0.078 1.872 -1.014 2.73 -0.702 c3.354 0.078 7.41 3.666 8.112 6.708 c0.858 3.744 0.624 7.488 0.546 11.31 c-0.078 1.56 -0.078 3.198 -0.312 4.836 c-0.39 3.276 -4.758 6.708 -7.878 6.786 z M54.989999999999995 51.012 l0 9.75 c-0.078 3.354 2.028 5.46 4.524 5.304 c2.418 -0.156 3.978 -1.95 4.134 -4.212 c0.234 -3.276 0 -6.63 0.39 -9.906 c0.156 -1.794 -0.234 -3.588 -1.716 -4.68 c-1.404 -1.014 -2.964 -1.248 -4.68 -0.39 c-1.638 0.936 -2.652 2.262 -2.652 4.134 z M52.337999999999994 39.624 c-1.482 -0.234 -2.184 -1.014 -2.184 -2.418 c0 -1.326 1.248 -2.73 2.574 -2.574 c2.964 0.546 5.928 -0.234 8.97 0.234 c1.326 0.234 2.652 0.078 4.056 -0.078 c1.482 -0.156 2.652 0.624 2.886 2.028 c0.234 1.482 -0.468 2.34 -2.184 2.574 c-1.326 0.234 -2.73 0.39 -3.432 0.546 c-3.978 -0.234 -7.332 0.234 -10.686 -0.312 z M66.846 73.32 c1.092 0.39 2.184 1.014 2.106 2.418 c-0.078 1.17 -1.56 2.34 -2.73 2.34 c-1.872 -0.546 -3.9 0.078 -5.772 -0.39 c-1.014 -0.234 -1.716 0.39 -2.652 0.468 c-1.95 0.156 -3.9 -0.234 -5.772 -0.702 c-1.326 -0.312 -1.638 -1.404 -1.56 -2.574 c0 -1.248 0.78 -2.028 1.872 -1.95 c3.042 0.156 6.162 -0.546 9.204 0.156 c1.716 0.39 3.588 -0.468 5.304 0.234 z M80.262 60.216 c1.014 -1.638 1.014 -3.354 1.17 -5.07 c0.078 -1.248 0.234 -2.418 0.702 -3.588 c0.39 -0.936 0.624 -1.95 0.546 -2.964 c-0.078 -0.936 0.156 -1.794 0.468 -2.652 c0.624 -1.95 0.78 -3.978 0.936 -6.006 c0.078 -1.716 0.78 -3.276 1.872 -4.524 c0.702 -0.702 1.638 -0.78 2.574 -0.39 c0.858 0.39 1.248 1.17 1.092 2.106 c-0.156 1.872 -0.312 3.666 -0.702 5.538 c-0.312 1.482 -0.936 3.042 -0.78 4.602 c0 0.936 -0.702 1.638 -0.858 2.574 c-0.546 4.212 -1.17 8.424 -1.872 12.636 c-0.468 2.808 -1.092 5.616 -1.638 8.424 c-0.234 1.092 -0.546 2.184 -0.468 3.354 c0 1.092 -0.546 2.028 -1.248 2.808 s-1.56 1.17 -2.574 0.858 c-1.092 -0.312 -1.014 -1.248 -1.248 -2.028 c-0.39 -1.716 -0.546 -3.588 -1.248 -5.226 c-0.312 -0.624 -0.234 -1.482 -0.234 -2.184 c-0.156 -3.198 -0.936 -6.318 -1.638 -9.36 c-0.858 -3.822 -1.404 -7.722 -2.184 -11.544 c-0.624 -3.354 -1.56 -6.708 -1.56 -10.218 c0 -1.404 0.858 -2.574 2.028 -2.73 c1.092 -0.078 2.574 0.858 2.73 2.028 c0.546 4.602 1.638 9.126 2.418 13.65 c0.468 2.652 0.468 5.304 1.56 7.8 c0.312 0.702 -0.39 1.326 0.156 2.106 z  M124.176 63.647999999999996 c0.39 2.262 0.78 4.758 1.404 7.176 c0.312 1.17 0.624 2.418 0.78 3.588 c0.312 1.638 -0.936 3.432 -2.262 3.51 c-1.56 0.078 -2.73 -1.326 -2.73 -3.198 c0 -0.78 -0.234 -1.638 -0.312 -2.496 c-0.078 -0.624 -0.546 -0.78 -1.092 -0.624 c-1.95 0.468 -3.9 0 -5.85 0.078 c-0.78 0.078 -0.858 0.39 -0.858 1.014 c0 1.248 -0.312 2.418 -0.702 3.588 c-0.39 1.326 -1.638 1.95 -3.042 1.56 c-1.326 -0.39 -1.95 -1.248 -1.794 -2.652 c0.702 -4.134 1.326 -8.268 2.106 -12.48 c0.156 -0.936 0.624 -1.872 0.78 -2.886 c0.858 -3.822 0.858 -7.8 1.95 -11.622 c0.78 -2.652 0.936 -5.46 1.638 -8.112 c0.312 -1.326 0.234 -2.73 0.78 -4.056 s1.482 -1.326 2.574 -1.404 s1.482 0.468 1.716 1.482 c0.858 3.12 1.326 6.318 1.716 9.516 c0.312 2.106 0.624 4.212 1.17 6.24 c0.624 2.184 1.014 4.446 1.092 6.63 c0.078 1.794 1.404 3.198 0.936 5.148 z M117 50.388000000000005 c-0.312 2.34 -0.546 4.602 -1.17 6.864 c-0.702 2.886 -0.858 5.928 -1.326 8.892 c-0.156 0.858 0.312 1.17 0.936 0.936 c1.248 -0.468 2.496 -0.39 3.744 -0.078 c0.78 0.156 1.014 -0.078 0.78 -0.858 c-0.312 -0.78 -0.624 -1.638 -0.624 -2.418 c-0.156 -4.602 -1.95 -8.814 -2.34 -13.338 z M147.576 38.064 c0 4.134 -0.078 8.268 0 12.402 c0.078 3.354 0.468 6.786 0.234 10.14 c-0.156 3.354 -0.156 6.708 -0.39 10.062 c-0.156 2.496 -3.978 6.474 -6.474 7.02 c-2.574 0.546 -4.836 0.39 -7.254 -0.858 c-2.184 -1.092 -5.07 -5.694 -4.836 -8.19 c0.39 -2.964 0.078 -5.85 0.156 -8.814 c0.078 -2.496 0.078 -4.992 0.234 -7.41 c0.078 -1.326 -0.156 -2.652 -0.234 -3.9 c-0.468 -3.666 0.624 -7.332 -0.078 -10.998 c-0.234 -1.17 1.482 -2.886 2.652 -2.886 c1.404 0 2.73 1.404 2.496 2.808 c-0.468 2.34 0.078 4.602 -0.078 6.942 c-0.156 3.12 0.078 6.318 0.078 9.438 c0.078 3.744 -0.078 7.41 0.156 11.154 c0.078 1.872 -0.39 3.744 0.312 5.616 c0.858 2.184 4.524 3.276 6.162 1.56 c1.872 -2.028 3.12 -4.368 1.95 -7.332 c-0.234 -0.702 -0.078 -1.638 -0.078 -2.418 c0.156 -4.134 0.078 -8.19 0 -12.324 c-0.078 -3.744 0.156 -7.41 0.312 -11.076 c0 -0.78 -0.546 -1.56 -0.156 -2.34 c0.546 -1.092 1.326 -2.106 2.652 -1.95 c1.17 0.078 2.496 1.95 2.184 3.354 z M156.23399999999998 34.71 c1.56 -0.156 3.198 0.078 4.758 0.312 c4.134 0.546 8.034 4.836 8.112 8.97 c0.078 3.978 0.546 7.878 0.312 11.778 c-0.39 5.148 0.624 10.374 -0.702 15.444 c-0.156 0.312 -0.156 0.78 -0.312 1.014 c-2.028 2.574 -3.9 4.914 -7.644 5.46 c-2.496 0.39 -4.914 0.312 -7.41 0.156 c-1.95 -0.078 -3.12 -1.638 -3.042 -4.29 c0.078 -2.886 0.546 -5.772 0.312 -8.658 c-0.312 -2.496 0.39 -4.992 0.156 -7.41 c-0.312 -2.574 -0.39 -5.148 -0.39 -7.722 c0 -3.822 0.234 -7.644 0.078 -11.466 c-0.078 -2.574 1.092 -3.588 3.666 -3.588 c0.702 -0.078 1.404 0 2.106 0 z M157.87199999999999 39.546 c-0.234 0 -0.468 0.078 -0.624 0 c-1.404 -0.312 -1.638 0.156 -1.872 1.56 c-0.234 1.716 0.234 3.354 0.156 5.07 c-0.156 3.432 -0.468 6.942 -0.156 10.374 c0.39 4.368 -0.078 8.658 0 13.026 c0 1.17 0.312 2.34 0.546 3.354 c0.078 0.624 1.404 -0.078 2.184 0.078 c0.39 0 0.78 0.078 1.17 0.078 c1.872 0.234 4.134 -1.248 4.446 -3.12 c0.312 -2.184 0.702 -4.446 0.624 -6.63 c-0.078 -4.29 0 -8.502 -0.156 -12.714 c-0.078 -2.496 -0.156 -4.914 -0.39 -7.332 c-0.078 -0.78 -0.39 -1.248 -0.936 -1.794 c-1.326 -1.56 -3.042 -2.028 -4.992 -1.95 z M172.06799999999998 40.872 l0 -3.354 c0.156 -1.56 1.482 -2.964 2.73 -2.886 c1.326 0.078 2.262 1.404 2.262 3.042 c0 2.574 0 5.148 0.234 7.722 c0.156 2.106 -0.156 4.368 -0.156 6.552 c0 4.836 -0.468 9.672 0.156 14.508 c0.156 0.858 -0.156 1.638 -0.234 2.418 c-0.156 2.028 -0.078 4.134 0.234 6.162 c0.234 1.482 -0.78 2.808 -2.184 3.042 c-1.482 0.312 -2.73 -0.624 -2.964 -2.184 c-0.078 -0.858 -0.078 -1.638 0.078 -2.418 c0.39 -2.964 -0.312 -6.006 -0.078 -8.892 c0.156 -2.886 -0.624 -5.772 0.156 -8.58 c0.312 -1.248 -0.234 -2.418 -0.234 -3.666 c0.234 -3.822 -0.468 -7.644 0 -11.466 z M190.08599999999998 70.98 c-3.276 0 -5.772 -1.092 -8.034 -3.276 c-1.482 -1.404 -1.872 -3.198 -2.106 -5.148 c-0.234 -2.106 0.234 -4.212 0 -6.318 c-0.312 -2.964 -0.078 -5.85 0.624 -8.736 c0.702 -3.12 3.198 -5.226 6.318 -5.46 c1.092 -0.078 1.872 -1.014 2.73 -0.702 c3.354 0.078 7.41 3.666 8.112 6.708 c0.858 3.744 0.624 7.488 0.546 11.31 c-0.078 1.56 -0.078 3.198 -0.312 4.836 c-0.39 3.276 -4.758 6.708 -7.878 6.786 z M184.548 51.012 l0 9.75 c-0.078 3.354 2.028 5.46 4.524 5.304 c2.418 -0.156 3.978 -1.95 4.134 -4.212 c0.234 -3.276 0 -6.63 0.39 -9.906 c0.156 -1.794 -0.234 -3.588 -1.716 -4.68 c-1.404 -1.014 -2.964 -1.248 -4.68 -0.39 c-1.638 0.936 -2.652 2.262 -2.652 4.134 z M181.896 39.624 c-1.482 -0.234 -2.184 -1.014 -2.184 -2.418 c0 -1.326 1.248 -2.73 2.574 -2.574 c2.964 0.546 5.928 -0.234 8.97 0.234 c1.326 0.234 2.652 0.078 4.056 -0.078 c1.482 -0.156 2.652 0.624 2.886 2.028 c0.234 1.482 -0.468 2.34 -2.184 2.574 c-1.326 0.234 -2.73 0.39 -3.432 0.546 c-3.978 -0.234 -7.332 0.234 -10.686 -0.312 z M196.404 73.32 c1.092 0.39 2.184 1.014 2.106 2.418 c-0.078 1.17 -1.56 2.34 -2.73 2.34 c-1.872 -0.546 -3.9 0.078 -5.772 -0.39 c-1.014 -0.234 -1.716 0.39 -2.652 0.468 c-1.95 0.156 -3.9 -0.234 -5.772 -0.702 c-1.326 -0.312 -1.638 -1.404 -1.56 -2.574 c0 -1.248 0.78 -2.028 1.872 -1.95 c3.042 0.156 6.162 -0.546 9.204 0.156 c1.716 0.39 3.588 -0.468 5.304 0.234 z" style="fill: #f81616;"/></g><g id="SvgjsG1053" rel="mainfill" name="slogan_text" transform="translate(82.83160284490285,52.25777559280394)" fill="#f81616"><path fill="#f81616" d="M9.32 11.66 q0.02 0.6 0.04 1.42 t-0.12 1.71 t-0.5 1.78 t-1.08 1.63 q-0.52 0.52 -1.19 0.87 t-1.37 0.55 t-1.38 0.28 t-1.23 0.09 t-0.92 -0.02 t-0.43 -0.07 t-0.09 -0.55 t-0.04 -1.27 t0.01 -1.66 t0.05 -1.72 t0.07 -1.45 t0.1 -0.85 q0.02 -0.16 0.04 -0.57 t0.04 -0.96 t0.02 -1.2 l0 -1.31 q0 -1.54 -0.02 -3.38 q0.36 0.02 0.74 0.04 q0.34 0.02 0.75 0.05 t0.87 0.09 q1.06 0.16 2.12 0.62 t1.9 1.3 q0.66 0.66 1.14 1.75 t0.48 2.83 z M4.54 16.58 q0.08 -0.02 0.42 -0.2 t0.72 -0.65 t0.68 -1.31 t0.3 -2.16 q0 -0.98 -0.31 -1.66 t-0.69 -1.1 q-0.44 -0.5 -0.98 -0.8 q-0.08 2.22 -0.14 3.96 q-0.02 0.74 -0.04 1.45 t-0.02 1.26 t0.01 0.88 t0.05 0.33 z M19.060000000000002 8.74 q0.16 0 0.27 0.47 t0.16 1.04 t0.05 1.06 t-0.04 0.55 q-0.02 0.04 -0.24 0.05 t-0.57 0.03 t-0.79 0.02 l-0.9 0 q-1.08 0 -2.44 -0.04 l0.1 0.88 q0.84 0.04 1.54 0.06 q0.3 0 0.59 0.01 t0.53 0.02 t0.41 0.01 l0.21 0 q0.1 0 0.13 0.46 t0.05 1 q0.02 0.66 0.02 1.46 l-3.38 0.2 l0.06 0.78 l2.42 0 l0.91 0 t0.82 -0.01 t0.62 -0.02 t0.31 -0.01 t0.09 0.13 t0.06 0.35 t0.05 0.51 t0.02 0.59 q0.02 0.72 0.02 1.64 q-2.34 -0.02 -4.18 -0.04 q-0.78 0 -1.55 -0.01 t-1.39 -0.02 t-1.02 -0.03 t-0.46 -0.04 t-0.1 -0.5 t-0.04 -1.27 t0.01 -1.78 t0.03 -2.03 q0.06 -2.42 0.14 -5.52 l7.48 0 z M29.84 8.74 q0.16 0 0.27 0.47 t0.16 1.04 t0.05 1.06 t-0.04 0.55 q-0.02 0.04 -0.24 0.05 t-0.57 0.03 t-0.79 0.02 l-0.9 0 q-1.08 0 -2.44 -0.04 l0.1 0.88 q0.84 0.04 1.54 0.06 q0.3 0 0.59 0.01 t0.53 0.02 t0.41 0.01 l0.21 0 q0.1 0 0.13 0.46 t0.05 1 q0.02 0.66 0.02 1.46 l-3.38 0.2 l0.06 0.78 l2.42 0 l0.91 0 t0.82 -0.01 t0.62 -0.02 t0.31 -0.01 t0.09 0.13 t0.06 0.35 t0.05 0.51 t0.02 0.59 q0.02 0.72 0.02 1.64 q-2.34 -0.02 -4.18 -0.04 q-0.78 0 -1.55 -0.01 t-1.39 -0.02 t-1.02 -0.03 t-0.46 -0.04 t-0.1 -0.5 t-0.04 -1.27 t0.01 -1.78 t0.03 -2.03 q0.06 -2.42 0.14 -5.52 l7.48 0 z M41.32 13.059999999999999 q0 0.76 -0.23 1.34 t-0.6 1.03 t-0.84 0.78 t-0.95 0.57 q-1.16 0.54 -2.62 0.72 q0.02 0.6 0.02 1.1 q0 0.42 -0.01 0.8 t-0.07 0.48 t-0.49 0.11 t-0.96 -0.01 t-0.99 -0.06 t-0.54 -0.04 q-0.04 0 -0.07 -0.46 t-0.03 -1.23 l0 -1.74 t0.02 -1.99 q0.04 -2.38 0.12 -5.42 q0 -0.06 0.13 -0.11 t0.35 -0.09 t0.5 -0.06 t0.58 -0.02 q0.68 -0.02 1.54 0 q1.44 0.14 2.56 0.66 q0.48 0.22 0.94 0.54 t0.83 0.76 t0.59 1.02 t0.22 1.32 z M36.12 13.9 q0.1 0.02 0.39 -0.03 t0.6 -0.16 t0.55 -0.29 t0.24 -0.4 q0 -0.46 -0.28 -0.7 t-0.62 -0.34 q-0.38 -0.12 -0.88 -0.14 q-0.08 0.58 -0.1 1.02 q-0.04 0.4 -0.02 0.71 t0.12 0.33 z M44.96 16.740000000000002 q0.68 0 1.16 0.49 t0.48 1.15 q0 0.7 -0.48 1.17 t-1.16 0.47 q-0.7 0 -1.17 -0.47 t-0.47 -1.17 q0 -0.66 0.47 -1.15 t1.17 -0.49 z M54 10.8 q-0.06 -0.6 -0.2 -1.12 q-0.12 -0.44 -0.33 -0.81 t-0.57 -0.45 q-0.36 -0.06 -0.57 0.11 t-0.33 0.42 t-0.16 0.53 t-0.04 0.42 q-0.04 0.34 0.32 0.79 t0.92 0.96 t1.22 1.05 t1.24 1.07 t0.98 1.02 t0.44 0.89 q0.12 0.76 0.03 1.36 t-0.32 1.05 t-0.57 0.77 t-0.7 0.54 q-0.86 0.52 -2.04 0.64 q-1.16 -0.1 -2.1 -0.54 q-0.4 -0.18 -0.79 -0.45 t-0.7 -0.66 t-0.52 -0.91 t-0.25 -1.18 q0 -0.08 0.14 -0.14 t0.38 -0.11 t0.55 -0.07 t0.63 -0.04 q0.76 -0.04 1.72 -0.02 q0.02 0.38 0.1 0.66 q0.06 0.24 0.19 0.44 t0.39 0.18 q0.52 -0.04 0.9 -0.19 t0.34 -0.49 q0.02 -0.34 -0.4 -0.72 t-1.05 -0.84 t-1.37 -1.01 t-1.38 -1.23 t-1.07 -1.5 t-0.43 -1.82 q0 -0.14 0.07 -0.51 t0.25 -0.85 t0.48 -1.01 t0.77 -0.97 t1.13 -0.74 t1.54 -0.34 q1.1 0.02 1.95 0.53 t1.41 1.3 t0.84 1.77 t0.24 1.94 q-0.02 0.1 -0.52 0.15 t-1.12 0.09 q-0.72 0.04 -1.64 0.04 z M64.9 8.76 q1.34 0 2.29 0.32 t1.58 0.83 t1.01 1.14 t0.57 1.25 t0.24 1.15 t0.05 0.85 t-0.06 0.87 t-0.25 1.19 t-0.56 1.3 t-1 1.2 t-1.55 0.88 t-2.22 0.34 t-2.22 -0.34 t-1.56 -0.88 t-1.02 -1.21 t-0.58 -1.31 t-0.26 -1.19 t-0.06 -0.85 t0.04 -0.83 t0.22 -1.15 t0.54 -1.25 t0.98 -1.14 t1.55 -0.84 t2.27 -0.33 z M64.98 16.86 q0.84 0 1.33 -0.31 t0.73 -0.73 t0.31 -0.83 t0.07 -0.63 q0 -0.2 -0.06 -0.6 t-0.31 -0.79 t-0.75 -0.69 t-1.36 -0.3 q-0.88 0 -1.36 0.3 t-0.72 0.7 t-0.29 0.79 t-0.05 0.59 t0.07 0.62 t0.32 0.84 t0.74 0.73 t1.33 0.31 z M72.66 8.94 q0.76 -0.04 1.38 -0.06 q0.52 -0.02 0.96 -0.02 t0.48 0.04 q0 0.04 0.01 0.28 t0.02 0.63 t0.02 0.88 t0.01 0.99 l0 2.68 q0.06 0.78 0.28 1.38 q0.2 0.52 0.62 0.94 t1.22 0.42 t1.19 -0.43 t0.55 -0.95 q0.18 -0.6 0.16 -1.38 l0.16 -5.16 q0.72 -0.04 1.28 -0.04 q0.48 0 0.88 0.02 t0.44 0.1 q0.02 0.04 0.04 0.51 t0.03 1.17 t0.01 1.55 t-0.01 1.65 t-0.05 1.46 t-0.1 0.98 q-0.08 0.42 -0.44 1.02 t-0.95 1.15 t-1.36 0.93 t-1.69 0.38 q-1.14 0 -1.94 -0.35 t-1.38 -0.87 q-0.54 -0.48 -0.87 -0.99 t-0.52 -1.08 t-0.27 -1.23 t-0.1 -1.46 q-0.04 -0.86 -0.05 -1.76 t-0.01 -1.66 l0 -1.72 z M84.54 8.9 q0 -0.08 0.47 -0.09 t1.05 0.01 q0.66 0.02 1.52 0.08 l3.58 5.7 l0.02 -5.66 l1.44 0 q0.56 0 1.04 0.01 t0.56 0.01 q0.04 0 0.06 0.48 t0.02 1.25 l0 1.75 t-0.02 2 q-0.04 2.42 -0.1 5.46 q-0.76 0.02 -1.4 0.02 q-0.54 0 -1.03 0.01 t-0.59 -0.03 q-0.06 -0.02 -0.24 -0.25 t-0.44 -0.59 t-0.57 -0.81 t-0.63 -0.93 q-0.74 -1.1 -1.64 -2.52 l-0.12 5.18 q-0.78 0.02 -1.42 0.02 q-0.54 0.02 -1.02 0.02 l-0.56 0 q-0.04 0 -0.06 -0.48 t-0.02 -1.26 l0 -1.78 t0.02 -2.04 q0.02 -2.44 0.08 -5.56 z M99.58 8.86 q1.74 0.12 3.14 0.74 q0.58 0.26 1.15 0.66 t1.01 0.97 t0.71 1.33 t0.27 1.74 q0 1.06 -0.26 1.88 t-0.69 1.42 t-0.97 1.01 t-1.1 0.67 q-1.32 0.64 -3 0.7 l-3.42 0 q-0.04 0 -0.06 -0.48 t-0.03 -1.26 t-0.01 -1.78 l0 -2.04 q0.02 -2.44 0.06 -5.56 q0 -0.08 0.5 -0.09 t1.1 0.01 q0.7 0.02 1.6 0.08 z M99.42 16.96 q0.04 0 0.3 0.01 t0.63 -0.03 t0.79 -0.17 t0.78 -0.42 t0.59 -0.76 t0.23 -1.19 q0 -0.54 -0.15 -0.93 t-0.39 -0.66 t-0.54 -0.43 t-0.62 -0.26 q-0.76 -0.22 -1.7 -0.14 q-0.02 1.38 -0.02 2.48 l0 0.91 t0.02 0.8 t0.03 0.57 t0.05 0.22 z M114.62 8.82 q0.04 0.86 0.06 1.52 q0.02 0.58 -0.01 1.04 t-0.11 0.46 l-0.64 0 t-1.17 0.02 t-1.14 0.07 t-0.53 0.13 q-0.06 0.18 -0.05 0.36 t0.13 0.22 q0.04 0.02 0.4 0.09 t0.87 0.21 t1.09 0.39 t1.09 0.62 t0.85 0.89 t0.36 1.22 q0.02 1.06 -0.39 1.81 t-1 1.24 t-1.23 0.72 t-1.06 0.23 l-1.02 0 t-1.12 -0.02 q-0.64 0 -1.28 -0.02 q-0.04 -0.84 -0.04 -1.5 q0 -0.58 0.04 -1.05 t0.16 -0.51 q0.12 -0.02 0.63 0 t1.11 0.04 t1.13 -0.03 t0.71 -0.23 q0.16 -0.18 0.1 -0.3 t-0.22 -0.22 q-0.18 -0.08 -0.46 -0.16 q-1.28 -0.14 -2.22 -0.66 q-0.4 -0.22 -0.77 -0.53 t-0.62 -0.75 t-0.35 -1.02 t0.02 -1.32 t0.48 -1.26 t0.85 -0.87 t1.08 -0.54 t1.19 -0.29 q1.4 -0.22 3.08 0 z" style="fill: #f81616;"/></g><defs id="SvgjsDefs1051"/><g id="SvgjsG1054" fill="#f81616" rel="mainfill" name="symbol" transform="translate(-11.413928163776244,-7.173724528212435) scale(0.8993010299006696)"><circle xmlns="http://www.w3.org/2000/svg" fill="#ffffff" cx="62.163" cy="81.139" r="1.881"/><circle xmlns="http://www.w3.org/2000/svg" fill="#ffffff" cx="42.019" cy="81.139" r="1.882"/><path xmlns="http://www.w3.org/2000/svg" fill="#f81616" d="M80.661,7.977c0,0-6.575,11.232-13.225,10.795c-4.263-3.15-10.034-4.76-16.395-4.76  c-6.356,0-12.125,1.608-16.388,4.755c-0.105,0-0.205-0.005-0.316,0.003C27.665,19.291,21.043,7.977,21.043,7.977  s-0.97,13.399,7.29,18.978c0.039,0.026,0.075,0.044,0.114,0.069c-0.743,2.069-1.149,4.376-1.149,6.924l5.416,34.265  c-0.674,2.736-1.05,5.076-1.172,7.074c-1.082,1.691-1.718,3.695-1.718,5.852c0,6.012,4.873,10.885,10.883,10.885h20.685  c6.011,0,10.883-4.873,10.883-10.885c0-2.246-0.682-4.332-1.846-6.064c-0.133-1.959-0.467-4.221-1.057-6.861l5.413-34.265  c0-2.633-0.436-5.008-1.227-7.13C81.609,21.163,80.661,7.977,80.661,7.977z M33.136,40.375c0-1.275,1.033-2.311,2.312-2.311  s2.312,1.035,2.312,2.311c0,1.277-1.033,2.312-2.312,2.312S33.136,41.653,33.136,40.375z M61.913,87.104H41.269  c-3.293,0-5.964-2.67-5.964-5.965c0-3.293,2.671-5.963,5.964-5.963h20.645c3.295,0,5.964,2.67,5.964,5.963  C67.877,84.434,65.208,87.104,61.913,87.104z M65.815,42.688c-1.275,0-2.312-1.035-2.312-2.312c0-1.275,1.036-2.311,2.312-2.311  c1.279,0,2.313,1.035,2.313,2.311C68.129,41.653,67.095,42.688,65.815,42.688z" style="fill: #f81616;"/><path xmlns="http://www.w3.org/2000/svg" fill="#f81616" d="M75.062,33.75" style="fill: #f81616;"/><path xmlns="http://www.w3.org/2000/svg" fill="#f81616" d="M27.337,32.569" style="fill: #f81616;"/><path xmlns="http://www.w3.org/2000/svg" fill="#f81616" d="M82.213,24.928c-1.229,0-3.506,0.705-6.044,1.668c0.41,1.205,0.709,2.47,0.908,3.784  c1.818-0.644,3.699-1.242,4.414-1.242c1.551,0,2.807,1.257,2.807,2.808c0,1.549-1.256,2.807-2.807,2.807  c-0.682,0-2.422-0.543-4.157-1.15c0.001,0.116,0.014,0.229,0.014,0.346v0.201l-0.032,0.198l-0.503,3.188  c2.274,0.837,4.276,1.429,5.4,1.429c3.876,0,7.018-3.143,7.018-7.018C89.23,28.07,86.089,24.928,82.213,24.928z" style="fill: #f81616;"/><path xmlns="http://www.w3.org/2000/svg" fill="#f81616" d="M24.735,34.149v-0.201c0-0.137,0.014-0.268,0.016-0.404c-1.789,0.631-3.617,1.209-4.32,1.209  c-1.55,0-2.806-1.258-2.806-2.807c0-1.551,1.256-2.808,2.806-2.808c0.736,0,2.703,0.632,4.568,1.296  c0.197-1.322,0.494-2.595,0.904-3.807c-2.609-0.979-4.953-1.699-6.193-1.699c-3.876,0-7.018,3.142-7.018,7.018  c0,3.875,3.142,7.018,7.018,7.018c1.139,0,3.207-0.608,5.555-1.465l-0.498-3.151L24.735,34.149z" style="fill: #f81616;"/></g>
                </g>
            </svg>
        