<?xml version="1.0" encoding="UTF-8" standalone="no"?>
<svg
   xmlns:dc="http://purl.org/dc/elements/1.1/"
   xmlns:cc="http://creativecommons.org/ns#"
   xmlns:rdf="http://www.w3.org/1999/02/22-rdf-syntax-ns#"
   xmlns:svg="http://www.w3.org/2000/svg"
   xmlns="http://www.w3.org/2000/svg"
   version="1.1"
   id="svg2"
   viewBox="0 0 297 210">
  <metadata
     id="metadata18">
    <rdf:RDF>
      <cc:Work
         rdf:about="">
        <dc:format>image/svg+xml</dc:format>
        <dc:type
           rdf:resource="http://purl.org/dc/dcmitype/StillImage" />
      </cc:Work>
    </rdf:RDF>
  </metadata>
  <defs
     id="defs16" />
  <g
     id="text4"
     style="font-size:28px;font-family:'Caviar Dreams Bold';letter-spacing:0;fill:#402a2c"
     transform="translate(0,90.996)">
    <path
       id="path21"
       style=""
       d="m 32.715765,-0.41657829 0,15.87304729 3.335937,0 q 4.22461,0 6.179688,-1.914063 1.96875,-1.914062 1.96875,-6.0429687 0,-4.1015625 -1.96875,-6.0019531 -1.955078,-1.91406249 -6.179688,-1.91406249 l -3.335937,0 z m -2.761719,-2.26953121 5.673828,0 q 5.933594,0 8.708985,2.47460933 2.77539,2.46093747 2.77539,7.71093747 0,5.2773437 -2.789062,7.7519527 -2.789063,2.47461 -8.695313,2.47461 l -5.673828,0 0,-20.4121095 z" />
    <path
       id="path23"
       style=""
       d="m 59.786077,-0.81306267 q -3.007812,0 -4.785156,2.24218747 -1.763672,2.2421875 -1.763672,6.1113282 0,3.855469 1.763672,6.097656 1.777344,2.242188 4.785156,2.242188 3.007813,0 4.757813,-2.242188 1.763672,-2.242187 1.763672,-6.097656 0,-3.8691407 -1.763672,-6.1113282 -1.75,-2.24218747 -4.757813,-2.24218747 z m 0,-2.24218753 q 4.292969,0 6.863282,2.88476566 2.570312,2.87109374 2.570312,7.71093754 0,4.826172 -2.570312,7.710937 -2.570313,2.871094 -6.863282,2.871094 -4.30664,0 -6.890625,-2.871094 -2.570312,-2.871093 -2.570312,-7.710937 0,-4.8398438 2.570312,-7.71093754 2.583985,-2.88476566 6.890625,-2.88476566 z" />
    <path
       id="path25"
       style=""
       d="m 87.457952,14.81389 0,-5.4824214 -4.511718,0 0,-2.2695313 7.246093,0 0,8.7636717 q -1.599609,1.134766 -3.527343,1.722656 -1.927735,0.574219 -4.115235,0.574219 -4.785156,0 -7.492187,-2.789062 -2.69336,-2.802735 -2.69336,-7.792969 0,-5.0039063 2.69336,-7.79296879 2.707031,-2.80273441 7.492187,-2.80273441 1.996094,0 3.78711,0.4921875 1.804687,0.4921875 3.322265,1.4492188 l 0,2.9394531 q -1.53125,-1.29882812 -3.253906,-1.95507812 -1.722656,-0.65625 -3.623047,-0.65625 -3.746094,0 -5.632812,2.09179692 -1.873047,2.0917968 -1.873047,6.234375 0,4.128906 1.873047,6.220703 1.886718,2.091797 5.632812,2.091797 1.462891,0 2.611328,-0.246094 1.148438,-0.259765 2.064453,-0.792969 z" />
    <path
       id="path27"
       style=""
       d="m 109.16889,14.81389 0,-5.4824214 -4.51172,0 0,-2.2695313 7.24609,0 0,8.7636717 q -1.5996,1.134766 -3.52734,1.722656 -1.92773,0.574219 -4.11523,0.574219 -4.785159,0 -7.492191,-2.789062 -2.693359,-2.802735 -2.693359,-7.792969 0,-5.0039063 2.693359,-7.79296879 2.707032,-2.80273441 7.492191,-2.80273441 1.99609,0 3.78711,0.4921875 1.80468,0.4921875 3.32226,1.4492188 l 0,2.9394531 q -1.53125,-1.29882812 -3.2539,-1.95507812 -1.72266,-0.65625 -3.62305,-0.65625 -3.7461,0 -5.632814,2.09179692 -1.873047,2.0917968 -1.873047,6.234375 0,4.128906 1.873047,6.220703 1.886714,2.091797 5.632814,2.091797 1.46289,0 2.61133,-0.246094 1.14843,-0.259765 2.06445,-0.792969 z" />
    <path
       id="path29"
       style=""
       d="m 112.81928,-2.6861095 2.9668,0 5.66015,8.3945312 5.61914,-8.3945312 2.9668,0 -7.21875,10.6914062 0,9.7207033 -2.77539,0 0,-9.7207033 -7.21875,-10.6914062 z" />
    <path
       id="path31"
       style=""
       d="m 144.44233,-0.41657829 0,15.87304729 3.33593,0 q 4.22461,0 6.17969,-1.914063 1.96875,-1.914062 1.96875,-6.0429687 0,-4.1015625 -1.96875,-6.0019531 -1.95508,-1.91406249 -6.17969,-1.91406249 l -3.33593,0 z m -2.76172,-2.26953121 5.67383,0 q 5.93359,0 8.70898,2.47460933 2.77539,2.46093747 2.77539,7.71093747 0,5.2773437 -2.78906,7.7519527 -2.78906,2.47461 -8.69531,2.47461 l -5.67383,0 0,-20.4121095 z" />
    <path
       id="path33"
       style=""
       d="m 169.58491,0.03459358 -3.7461,10.15820342 7.50586,0 -3.75976,-10.15820342 z m -1.5586,-2.72070308 3.13086,0 7.7793,20.4121095 -2.8711,0 -1.85937,-5.236328 -9.20117,0 -1.85938,5.236328 -2.91211,0 7.79297,-20.4121095 z" />
    <path
       id="path35"
       style=""
       d="m 176.94037,-2.6861095 2.9668,0 5.66016,8.3945312 5.61914,-8.3945312 2.96679,0 -7.21875,10.6914062 0,9.7207033 -2.77539,0 0,-9.7207033 -7.21875,-10.6914062 z" />
    <path
       id="path37"
       style=""
       d="m 210.6142,-1.1138439 0,2.9121094 q -1.39453,-1.29882817 -2.98047,-1.94140629 -1.57226,-0.64257813 -3.34961,-0.64257813 -3.5,0 -5.35937,2.14648442 -1.85938,2.1328125 -1.85938,6.1796875 0,4.033203 1.85938,6.179687 1.85937,2.132813 5.35937,2.132813 1.77735,0 3.34961,-0.642578 1.58594,-0.642578 2.98047,-1.941406 l 0,2.884765 q -1.44922,0.984375 -3.07617,1.476563 -1.61328,0.492187 -3.41797,0.492187 -4.63476,0 -7.30078,-2.830078 -2.66602,-2.84375 -2.66602,-7.751953 0,-4.921875 2.66602,-7.75195317 2.66602,-2.84375003 7.30078,-2.84375003 1.83203,0 3.44531,0.4921875 1.62696,0.4785157 3.04883,1.4492188 z" />
    <path
       id="path39"
       style=""
       d="m 221.72944,0.03459358 -3.7461,10.15820342 7.50586,0 -3.75976,-10.15820342 z m -1.5586,-2.72070308 3.13086,0 7.7793,20.4121095 -2.87109,0 -1.85938,-5.236328 -9.20117,0 -1.85938,5.236328 -2.91211,0 7.79297,-20.4121095 z" />
    <path
       id="path41"
       style=""
       d="m 243.72748,8.1556873 q 0.88868,0.3007813 1.72266,1.2851563 0.84766,0.9843754 1.69531,2.7070314 l 2.80274,5.578125 -2.9668,0 -2.61133,-5.236328 q -1.01172,-2.050782 -1.96875,-2.7207034 -0.94336,-0.6699219 -2.58398,-0.6699219 l -3.00782,0 0,8.6269533 -2.76171,0 0,-20.4121095 6.23437,0 q 3.5,0 5.22266,1.4628906 1.72265,1.46289061 1.72265,4.4160156 0,1.9277344 -0.90234,3.1992188 -0.88867,1.2714843 -2.59766,1.7636718 z m -6.91797,-8.57226559 0,7.24609379 3.47266,0 q 1.99609,0 3.00781,-0.9160157 1.02539,-0.9296875 1.02539,-2.7207031 0,-1.7910156 -1.02539,-2.69335937 -1.01172,-0.91601562 -3.00781,-0.91601562 l -3.47266,0 z" />
    <path
       id="path43"
       style=""
       d="m 253.51655,-2.6861095 12.90625,0 0,2.32421871 -10.14454,0 0,6.04296879 9.72071,0 0,2.3242187 -9.72071,0 0,7.3964843 10.39063,0 0,2.324219 -13.15234,0 0,-20.4121095 z" />
  </g>
  <g
     id="text8"
     style="font-size:12px;font-family:Lato;letter-spacing:0;fill:#241715"
     transform="translate(0,90.996)">
    <path
       id="path46"
       style=""
       d="m 224.91133,27.934608 0,3.28711 1.48828,0 q 0.82617,0 1.27735,-0.427735 0.45117,-0.427734 0.45117,-1.21875 0,-0.785156 -0.45117,-1.21289 -0.45118,-0.427735 -1.27735,-0.427735 l -1.48828,0 z m -1.18359,-0.972656 2.67187,0 q 1.47071,0 2.22071,0.667969 0.75585,0.662109 0.75585,1.945312 0,1.294922 -0.75585,1.957032 -0.75,0.662109 -2.22071,0.662109 l -1.48828,0 0,3.515625 -1.18359,0 0,-8.748047 z" />
    <path
       id="path48"
       style=""
       d="m 230.83516,26.961952 1.18945,0 0,5.314453 q 0,1.40625 0.50977,2.027344 0.50976,0.615234 1.65234,0.615234 1.13672,0 1.64649,-0.615234 0.50976,-0.621094 0.50976,-2.027344 l 0,-5.314453 1.18945,0 0,5.460938 q 0,1.710937 -0.8496,2.583984 -0.84375,0.873047 -2.4961,0.873047 -1.6582,0 -2.50781,-0.873047 -0.84375,-0.873047 -0.84375,-2.583984 l 0,-5.460938 z" />
    <path
       id="path50"
       style=""
       d="m 240.94258,27.934608 0,3.28711 1.48828,0 q 0.82617,0 1.27735,-0.427735 0.45117,-0.427734 0.45117,-1.21875 0,-0.785156 -0.45117,-1.21289 -0.45118,-0.427735 -1.27735,-0.427735 l -1.48828,0 z m -1.18359,-0.972656 2.67187,0 q 1.47071,0 2.22071,0.667969 0.75585,0.662109 0.75585,1.945312 0,1.294922 -0.75585,1.957032 -0.75,0.662109 -2.22071,0.662109 l -1.48828,0 0,3.515625 -1.18359,0 0,-8.748047 z" />
    <path
       id="path52"
       style=""
       d="m 248.18477,27.934608 0,3.28711 1.48828,0 q 0.82617,0 1.27734,-0.427735 0.45118,-0.427734 0.45118,-1.21875 0,-0.785156 -0.45118,-1.21289 -0.45117,-0.427735 -1.27734,-0.427735 l -1.48828,0 z m -1.1836,-0.972656 2.67188,0 q 1.4707,0 2.2207,0.667969 0.75586,0.662109 0.75586,1.945312 0,1.294922 -0.75586,1.957032 -0.75,0.662109 -2.2207,0.662109 l -1.48828,0 0,3.515625 -1.1836,0 0,-8.748047 z" />
    <path
       id="path54"
       style=""
       d="m 254.24336,26.961952 1.1836,0 0,8.748047 -1.1836,0 0,-8.748047 z" />
    <path
       id="path56"
       style=""
       d="m 257.78242,26.961952 5.53125,0 0,0.996094 -4.34765,0 0,2.589844 4.16601,0 0,0.996093 -4.16601,0 0,3.169922 4.45312,0 0,0.996094 -5.63672,0 0,-8.748047 z" />
    <path
       id="path58"
       style=""
       d="m 270.59688,27.249062 0,1.154296 q -0.67383,-0.322265 -1.27149,-0.480468 -0.59765,-0.158203 -1.15429,-0.158203 -0.9668,0 -1.49414,0.375 -0.52149,0.375 -0.52149,1.066406 0,0.580078 0.3457,0.878906 0.35157,0.292969 1.32422,0.474609 l 0.71485,0.146485 q 1.32422,0.251953 1.95117,0.890625 0.63281,0.632812 0.63281,1.699219 0,1.271484 -0.85547,1.927734 -0.84961,0.65625 -2.49609,0.65625 -0.62109,0 -1.32422,-0.140625 -0.69727,-0.140625 -1.44727,-0.416016 l 0,-1.21875 q 0.72071,0.404297 1.41211,0.609375 0.69141,0.205078 1.35938,0.205078 1.01367,0 1.56445,-0.398437 0.55078,-0.398438 0.55078,-1.136719 0,-0.644531 -0.39843,-1.007812 -0.39258,-0.363282 -1.29493,-0.544922 l -0.7207,-0.140625 q -1.32422,-0.263672 -1.91601,-0.826172 -0.5918,-0.5625 -0.5918,-1.564453 0,-1.160156 0.81445,-1.828125 0.82031,-0.667969 2.25586,-0.667969 0.61524,0 1.25391,0.111328 0.63867,0.111328 1.30664,0.333985 z" />
  </g>
  <path
     id="path12"
     d="M27.206 122.062H215.55"
     stroke-width="5"
     stroke="#402a2c" />
</svg>
