<?xml version="1.0" encoding="UTF-8" standalone="no"?>
<svg
   xmlns:dc="http://purl.org/dc/elements/1.1/"
   xmlns:cc="http://creativecommons.org/ns#"
   xmlns:rdf="http://www.w3.org/1999/02/22-rdf-syntax-ns#"
   xmlns:svg="http://www.w3.org/2000/svg"
   xmlns="http://www.w3.org/2000/svg"
   version="1.1"
   id="svg2"
   width="300"
   height="230"
   viewBox="0 0 297 210">
  <metadata
     id="metadata30">
    <rdf:RDF>
      <cc:Work
         rdf:about="">
        <dc:format>image/svg+xml</dc:format>
        <dc:type
           rdf:resource="http://purl.org/dc/dcmitype/StillImage" />
      </cc:Work>
    </rdf:RDF>
  </metadata>
  <defs
     id="defs28" />
  <g
     style="font-size:36px;font-family:'Great Vibes';letter-spacing:0;fill:#784390"
     id="g4"
     letter-spacing="0"
     font-size="36">
    <path
       id="path6"
       d="m 99.78,86.33 c 2.232,-1.836 1.368,-4.788 -1.188,-6.048 -2.592,-1.296 -7.956,-1.08 -11.556,0.18 -5.256,1.872 -8.532,7.2 -3.168,10.764 2.7,1.8 7.524,3.096 9.756,4.896 4.356,3.528 1.8,9.72 -4.248,12.888 -7.2,3.744 -20.124,2.808 -20.052,-6.12 0.036,-2.304 0.72,-4.716 2.016,-6.732 0.648,-1.044 1.512,-1.944 2.484,-2.7 1.188,-0.9 0.144,-0.756 -0.36,-0.54 -3.528,1.656 -6.336,6.552 -6.156,9.972 0.612,10.152 15.948,11.16 24.084,6.3 6.084,-3.636 10.908,-10.404 3.564,-14.94 -2.664,-1.656 -6.3,-2.916 -8.496,-4.248 -4.86,-2.988 -2.34,-7.02 1.944,-8.568 11.592,-4.14 13.644,4.788 9.144,5.328 -1.188,0.144 -1.152,0.972 -0.18,0.72 1.044,-0.288 1.836,-0.684 2.412,-1.152 z m 14.702,15.624 c 0.252,-0.54 -0.36,-0.684 -0.54,-0.324 -0.864,1.728 -2.736,6.192 -5.04,6.192 -0.864,0 -1.404,-0.36 -1.692,-0.9 1.368,-1.296 2.484,-2.988 3.024,-4.248 1.368,-3.204 0.972,-6.516 -1.764,-6.552 -2.448,-0.072 -5.436,2.736 -6.84,6.048 -1.368,3.204 -0.972,6.48 1.764,6.552 1.044,0.036 2.124,-0.468 3.132,-1.224 0.468,0.54 1.224,0.936 2.304,0.936 3.024,0 5.04,-5.112 5.652,-6.48 z m -5.256,-4.644 c 1.296,0.396 1.116,2.952 -0.288,5.904 -0.324,0.684 -0.72,1.368 -1.116,1.944 0.036,-0.144 0.072,-0.252 0.072,-0.396 0,-0.576 -0.468,-1.08 -1.08,-1.08 -0.9,0 -1.224,0.72 -1.26,1.548 0,0.54 0.18,1.188 0.576,1.764 -0.864,0.72 -1.764,1.08 -2.448,0.9 -1.296,-0.396 -0.972,-2.916 0.432,-5.868 1.332,-2.844 3.564,-5.148 5.112,-4.716 z" />
    <path
       id="path8"
       d="m 123.986,102.134 c 0.323,-0.72 -0.18,-0.9 -0.505,-0.252 -1.44,2.844 -3.167,6.336 -6.3,6.336 -1.547,0 -2.123,-1.332 -2.123,-2.772 0,-2.088 1.331,-4.572 1.98,-5.508 1.008,-1.44 2.556,-3.096 3.852,-3.096 0.684,0 1.044,0.504 0.72,1.764 -0.18,0.648 -0.72,1.368 -1.116,1.836 0.792,0.792 2.268,-0.72 2.412,-1.908 0.18,-1.476 -0.684,-2.484 -2.484,-2.484 -1.728,0 -3.492,1.044 -4.824,2.844 -2.592,3.492 -4.464,9.972 1.224,9.972 3.96,0 5.4,-2.988 7.164,-6.732 z" />
    <path
       id="path10"
       d="m 128.765,93.674 c 0.144,-0.828 -0.432,-1.476 -1.26,-1.476 -0.792,0 -1.584,0.648 -1.728,1.476 -0.108,0.828 0.432,1.476 1.26,1.476 0.828,0 1.584,-0.648 1.728,-1.476 z m -5.076,11.988 c 0.072,-0.252 0.432,-1.044 0.432,-1.044 l 2.88,-6.732 c 0.396,-0.864 0.396,-1.26 -0.756,-1.26 l -1.98,0.036 c 0.144,0.18 0.648,0.828 0.36,1.512 l -2.304,5.868 c -0.756,1.872 -0.756,4.68 1.944,4.68 2.664,0 4.716,-4.572 5.652,-6.588 0.324,-0.72 -0.18,-0.972 -0.468,-0.324 -1.008,2.016 -2.196,4.248 -3.384,5.436 -0.396,0.36 -1.08,0.756 -1.62,0.684 -1.008,-0.072 -1.08,-1.08 -0.756,-2.268 z" />
    <path
       id="path12"
       d="m 142.653,102.098 c 0.36,-0.72 -0.18,-0.936 -0.504,-0.288 -0.756,1.548 -3.132,6.12 -4.644,6.048 -0.468,0 -0.648,-0.684 -0.36,-2.16 0.468,-2.196 2.592,-5.976 3.348,-6.732 -0.504,0.108 -1.044,-0.108 -1.512,-0.144 -1.152,-0.072 -1.656,0.792 -2.448,2.304 -0.936,1.764 -1.944,3.528 -3.204,5.04 -1.692,2.016 -3.672,2.304 -3.312,-0.216 0.216,-1.368 1.188,-3.132 1.476,-3.636 1.296,-2.124 3.168,-4.248 4.788,-5.148 1.332,-0.72 2.664,-0.432 3.06,0.9 0.612,0.108 0.9,-0.504 0.396,-1.044 -2.052,-2.232 -6.192,-0.9 -8.352,1.656 -5.436,6.516 -2.7,12.816 1.44,8.856 1.044,-1.008 2.016,-2.448 2.592,-3.384 -1.08,3.78 0.612,4.716 1.8,4.644 2.16,-0.18 4.356,-4.5 5.436,-6.696 z" />
    <path
       id="path14"
       d="m 151.495,90.974 c 2.592,-5.76 -1.296,-6.264 -3.852,-1.98 -2.088,3.492 -4.356,8.676 -5.472,12.708 -0.612,2.16 -2.34,7.092 1.692,7.092 3.636,0 5.508,-4.86 6.408,-6.768 0.324,-0.72 -0.216,-0.792 -0.54,-0.18 -0.468,0.936 -1.476,2.88 -2.664,4.572 -1.908,2.664 -4.788,2.052 -3.708,-2.268 0.216,-0.9 0.576,-1.764 0.756,-2.376 3.528,-3.204 5.724,-7.092 7.38,-10.8 z m -0.54,-0.54 c -1.404,3.348 -3.996,7.596 -6.552,10.188 1.116,-2.88 3.924,-9.324 5.688,-11.808 1.944,-2.772 1.584,-0.036 0.864,1.62 z m 54.6,10.188 c 3.42,-8.748 -0.756,-14.328 -5.364,-13.932 -1.656,-0.324 -3.744,1.728 -0.504,0.864 5.724,-0.792 6.624,5.652 3.636,12.744 -3.024,7.2 -16.128,15.66 -14.832,5.328 0.396,-3.024 2.664,-7.236 3.6,-9.936 1.008,-2.988 -0.504,-3.852 -2.376,-1.224 -3.132,4.356 -8.064,14.76 -12.456,17.352 -1.44,0.864 -2.376,0.468 -1.872,-2.016 0.684,-3.42 3.06,-9.936 5.184,-14.688 2.556,-5.76 4.176,-12.492 -1.044,-14.796 -6.372,-2.808 -18,2.772 -21.852,11.664 -4.032,9.216 3.024,14.976 8.676,12.636 8.82,-3.708 9.792,-14.688 1.836,-12.24 -0.792,0.252 -1.044,0.756 0.072,0.576 6.372,-1.044 3.168,8.964 -1.836,10.8 -4.788,1.764 -10.08,-1.404 -6.732,-10.44 2.988,-8.064 14.112,-15.444 19.98,-11.844 2.808,1.728 0.144,9.36 -1.692,13.788 -2.7,6.444 -4.464,11.16 -4.68,14.184 -0.216,2.952 1.08,3.816 2.52,3.744 3.96,-0.18 9.648,-8.46 11.664,-11.772 -0.432,1.44 -0.828,3.384 -0.72,5.148 0.684,9.504 15.12,3.384 18.792,-5.94 z m 7.515,-6.948 c 0.144,-0.828 -0.432,-1.476 -1.26,-1.476 -0.792,0 -1.584,0.648 -1.728,1.476 -0.108,0.828 0.432,1.476 1.26,1.476 0.828,0 1.584,-0.648 1.728,-1.476 z m -5.076,11.988 c 0.072,-0.252 0.432,-1.044 0.432,-1.044 l 2.88,-6.732 c 0.396,-0.864 0.396,-1.26 -0.756,-1.26 l -1.98,0.036 c 0.144,0.18 0.648,0.828 0.36,1.512 l -2.304,5.868 c -0.756,1.872 -0.756,4.68 1.944,4.68 2.664,0 4.716,-4.572 5.652,-6.588 0.324,-0.72 -0.18,-0.972 -0.468,-0.324 -1.008,2.016 -2.196,4.248 -3.384,5.436 -0.396,0.36 -1.08,0.756 -1.62,0.684 -1.008,-0.072 -1.08,-1.08 -0.756,-2.268 z" />
    <path
       id="path16"
       d="m 226.418,102.098 c 0.36,-0.72 -0.216,-0.972 -0.504,-0.324 -0.756,1.512 -3.06,6.228 -4.932,6.228 -0.468,0 -0.864,-0.324 -0.576,-1.8 0.468,-2.52 4.32,-9.288 4.32,-9.288 -1.224,-0.432 -4.932,1.836 -6.66,3.384 -1.116,0.972 -2.268,2.34 -2.988,3.24 1.296,-2.592 3.276,-6.192 4.356,-6.768 -0.504,0.108 -1.044,-0.108 -1.512,-0.144 -1.152,-0.072 -1.62,0.54 -2.556,2.268 -1.764,3.24 -3.24,6.66 -4.968,10.08 0.36,-0.216 0.684,-0.18 1.224,-0.216 0.756,0 1.08,-0.036 1.368,-0.54 2.016,-3.996 3.78,-6.012 5.004,-7.128 2.772,-2.592 3.42,-1.62 2.556,-0.216 -1.008,1.62 -1.692,2.844 -1.98,3.78 -1.08,3.348 0.648,4.212 1.908,4.212 2.772,0 4.86,-4.572 5.94,-6.768 z" />
    <path
       id="path18"
       d="m 235.344,101.99 c 0.36,-0.756 -0.36,-0.684 -0.648,-0.036 -0.828,1.908 -2.772,6.156 -5.94,6.156 -2.376,0 -1.764,-3.636 -1.224,-4.932 0.972,0 3.312,-0.756 4.428,-1.584 2.304,-1.764 3.348,-4.212 1.98,-5.256 -1.584,-1.188 -4.32,0.18 -6.156,2.34 -1.584,1.872 -2.808,4.572 -2.772,6.732 0.036,2.268 1.656,3.456 3.456,3.456 3.996,0 5.544,-3.996 6.876,-6.876 z m -3.744,-1.008 c -1.296,1.08 -3.168,1.584 -3.816,1.584 0.324,-0.648 1.224,-2.232 2.16,-3.384 4.428,-5.364 4.608,-0.684 1.656,1.8 z" />
  </g>
  <g
     style="font-size:12px;font-family:Lato;letter-spacing:0;fill:#818691"
     id="g20"
     letter-spacing="0"
     font-size="12">
    <path
       id="path22"
       d="m 126.452,124.374 1.183,0 0,7.752 4.26,0 0,0.996 -5.443,0 0,-8.748 z m 9.808,0.803 q -1.289,0 -2.05,0.96 -0.756,0.962 -0.756,2.62 0,1.652 0.756,2.613 0.761,0.961 2.05,0.961 1.29,0 2.04,-0.961 0.755,-0.96 0.755,-2.613 0,-1.658 -0.756,-2.62 -0.75,-0.96 -2.039,-0.96 z m 0,-0.961 q 1.84,0 2.942,1.236 1.101,1.23 1.101,3.305 0,2.068 -1.101,3.304 -1.102,1.23 -2.942,1.23 -1.845,0 -2.953,-1.23 -1.101,-1.23 -1.101,-3.304 0,-2.074 1.101,-3.305 1.108,-1.236 2.953,-1.236 z m 5.76,0.158 1.19,0 0,5.314 q 0,1.407 0.51,2.028 0.51,0.615 1.652,0.615 1.136,0 1.646,-0.615 0.51,-0.621 0.51,-2.028 l 0,-5.314 1.19,0 0,5.46 q 0,1.712 -0.85,2.585 -0.844,0.873 -2.496,0.873 -1.659,0 -2.508,-0.873 -0.844,-0.873 -0.844,-2.584 l 0,-5.461 z m 8.924,0 1.594,0 3.879,7.318 0,-7.318 1.148,0 0,8.748 -1.594,0 -3.879,-7.318 0,7.318 -1.148,0 0,-8.748 z m 14.941,7.5 0,-2.35 -1.933,0 0,-0.972 3.105,0 0,3.756 q -0.685,0.486 -1.512,0.738 -0.826,0.246 -1.763,0.246 -2.051,0 -3.211,-1.195 -1.154,-1.202 -1.154,-3.34 0,-2.145 1.154,-3.34 1.16,-1.201 3.21,-1.201 0.856,0 1.624,0.21 0.773,0.212 1.424,0.622 l 0,1.26 q -0.657,-0.557 -1.395,-0.838 -0.738,-0.282 -1.553,-0.282 -1.605,0 -2.414,0.897 -0.802,0.896 -0.802,2.672 0,1.77 0.802,2.666 0.809,0.896 2.414,0.896 0.627,0 1.12,-0.105 0.492,-0.112 0.884,-0.34 z m 3.34,-7.5 5.531,0 0,0.996 -4.347,0 0,2.59 4.166,0 0,0.996 -4.166,0 0,3.17 4.453,0 0,0.996 -5.637,0 0,-8.748 z" />
  </g>
  <path
     id="path24"
     stroke="#000"
     d="M102.274 128.478h15m65.452 0h15" />
</svg>
