<?xml version="1.0" encoding="UTF-8" standalone="no"?>
<svg
   xmlns:dc="http://purl.org/dc/elements/1.1/"
   xmlns:cc="http://creativecommons.org/ns#"
   xmlns:rdf="http://www.w3.org/1999/02/22-rdf-syntax-ns#"
   xmlns:svg="http://www.w3.org/2000/svg"
   xmlns="http://www.w3.org/2000/svg"
   version="1.1"
   id="svg2"
   viewBox="0 0 297 210"
   height="230"
   width="300">
  <metadata
     id="metadata18">
    <rdf:RDF>
      <cc:Work
         rdf:about="">
        <dc:format>image/svg+xml</dc:format>
        <dc:type
           rdf:resource="http://purl.org/dc/dcmitype/StillImage" />
      </cc:Work>
    </rdf:RDF>
  </metadata>
  <defs
     id="defs16" />
  <g
     id="text4"
     style="font-size:28px;font-family:'Montserrat Semibold';letter-spacing:0;fill:#402a2c"
     transform="translate(0,91.428)">
    <path
       id="path21"
       style=""
       d="m 57.868843,4.0777187 0,-8.2851562 2.515625,0 0,21.2734375 -2.515625,0 0,-2.296875 q -0.792969,1.367187 -2.009766,2.037109 -1.203125,0.65625 -2.898437,0.65625 -2.775391,0 -4.525391,-2.214843 -1.736328,-2.214844 -1.736328,-5.8242191 0,-3.609375 1.736328,-5.8242188 1.75,-2.2148437 4.525391,-2.2148437 1.695312,0 2.898437,0.6699218 1.216797,0.65625 2.009766,2.0234375 z m -8.572266,5.3457032 q 0,2.7753901 1.134766,4.3613281 1.148438,1.572266 3.144531,1.572266 1.996094,0 3.144532,-1.572266 1.148437,-1.585938 1.148437,-4.3613281 0,-2.7753907 -1.148437,-4.3476563 -1.148438,-1.5859375 -3.144532,-1.5859375 -1.996093,0 -3.144531,1.5859375 -1.134766,1.5722656 -1.134766,4.3476563 z" />
    <path
       id="path23"
       style=""
       d="m 71.499702,3.5171719 q -2.023437,0 -3.199218,1.5859375 -1.175782,1.5722656 -1.175782,4.3203125 0,2.7480471 1.16211,4.3339841 1.175781,1.572266 3.21289,1.572266 2.009766,0 3.185547,-1.585938 1.175782,-1.585937 1.175782,-4.3203121 0,-2.7207032 -1.175782,-4.3066407 -1.175781,-1.5996093 -3.185547,-1.5996093 z m 0,-2.1328125 q 3.28125,0 5.154297,2.1328125 1.873047,2.1328125 1.873047,5.90625 0,3.7597651 -1.873047,5.9062501 -1.873047,2.132812 -5.154297,2.132812 -3.294921,0 -5.167968,-2.132812 -1.859375,-2.146485 -1.859375,-5.9062501 0,-3.7734375 1.859375,-5.90625 1.873047,-2.1328125 5.167968,-2.1328125 z" />
    <path
       id="path25"
       style=""
       d="m 92.759468,9.2320156 q 0,-2.734375 -1.134766,-4.2382812 -1.121093,-1.5039063 -3.158203,-1.5039063 -2.023437,0 -3.158203,1.5039063 -1.121094,1.5039062 -1.121094,4.2382812 0,2.7207034 1.121094,4.2246094 1.134766,1.503906 3.158203,1.503906 2.03711,0 3.158203,-1.503906 1.134766,-1.503906 1.134766,-4.2246094 z m 2.515625,5.9335934 q 0,3.910157 -1.736328,5.810547 -1.736328,1.914063 -5.318359,1.914063 -1.326172,0 -2.501954,-0.205078 -1.175781,-0.191407 -2.283203,-0.601563 l 0,-2.447266 q 1.107422,0.601563 2.1875,0.888672 1.080078,0.28711 2.201172,0.28711 2.47461,0 3.705078,-1.298828 1.230469,-1.285157 1.230469,-3.896485 l 0,-1.24414 q -0.779297,1.353515 -1.996094,2.023437 -1.216797,0.669922 -2.912109,0.669922 -2.816406,0 -4.539063,-2.146484 -1.722656,-2.146485 -1.722656,-5.6875004 0,-3.5546875 1.722656,-5.7011719 1.722657,-2.1464843 4.539063,-2.1464843 1.695312,0 2.912109,0.6699218 1.216797,0.6699219 1.996094,2.0234375 l 0,-2.3242187 2.515625,0 0,13.412109 z" />
    <path
       id="path27"
       style=""
       d="m 110.53291,9.2320156 q 0,-2.734375 -1.13477,-4.2382812 -1.12109,-1.5039063 -3.1582,-1.5039063 -2.02344,0 -3.15821,1.5039063 -1.12109,1.5039062 -1.12109,4.2382812 0,2.7207034 1.12109,4.2246094 1.13477,1.503906 3.15821,1.503906 2.03711,0 3.1582,-1.503906 1.13477,-1.503906 1.13477,-4.2246094 z m 2.51562,5.9335934 q 0,3.910157 -1.73633,5.810547 -1.73633,1.914063 -5.31836,1.914063 -1.32617,0 -2.50195,-0.205078 -1.17578,-0.191407 -2.2832,-0.601563 l 0,-2.447266 q 1.10742,0.601563 2.1875,0.888672 1.08007,0.28711 2.20117,0.28711 2.47461,0 3.70508,-1.298828 1.23047,-1.285157 1.23047,-3.896485 l 0,-1.24414 q -0.7793,1.353515 -1.9961,2.023437 -1.2168,0.669922 -2.91211,0.669922 -2.8164,0 -4.53906,-2.146484 -1.722656,-2.146485 -1.722656,-5.6875004 0,-3.5546875 1.722656,-5.7011719 1.72266,-2.1464843 4.53906,-2.1464843 1.69531,0 2.91211,0.6699218 1.2168,0.6699219 1.9961,2.0234375 l 0,-2.3242187 2.51562,0 0,13.412109 z" />
    <path
       id="path29"
       style=""
       d="m 124.60126,18.487875 q -1.0664,2.734375 -2.07812,3.568359 -1.01172,0.833985 -2.70703,0.833985 l -2.00977,0 0,-2.105469 1.47657,0 q 1.03906,0 1.61328,-0.492188 0.57422,-0.492187 1.27148,-2.324218 l 0.45117,-1.148438 -6.19336,-15.066406 2.66602,0 4.78516,11.976562 4.78515,-11.976562 2.66602,0 -6.72657,16.734375 z" />
    <path
       id="path31"
       style=""
       d="m 153.79072,4.0777187 0,-8.2851562 2.51562,0 0,21.2734375 -2.51562,0 0,-2.296875 q -0.79297,1.367187 -2.00977,2.037109 -1.20312,0.65625 -2.89844,0.65625 -2.77539,0 -4.52539,-2.214843 -1.73632,-2.214844 -1.73632,-5.8242191 0,-3.609375 1.73632,-5.8242188 1.75,-2.2148437 4.52539,-2.2148437 1.69532,0 2.89844,0.6699218 1.2168,0.65625 2.00977,2.0234375 z m -8.57227,5.3457032 q 0,2.7753901 1.13477,4.3613281 1.14844,1.572266 3.14453,1.572266 1.99609,0 3.14453,-1.572266 1.14844,-1.585938 1.14844,-4.3613281 0,-2.7753907 -1.14844,-4.3476563 -1.14844,-1.5859375 -3.14453,-1.5859375 -1.99609,0 -3.14453,1.5859375 -1.13477,1.5722656 -1.13477,4.3476563 z" />
    <path
       id="path33"
       style=""
       d="m 168.44697,9.3687344 q -3.04883,0 -4.22461,0.6972656 -1.17578,0.697266 -1.17578,2.378906 0,1.339844 0.875,2.132813 0.88867,0.779297 2.40625,0.779297 2.09179,0 3.34961,-1.476563 1.27148,-1.490234 1.27148,-3.9511718 l 0,-0.5605468 -2.50195,0 z m 5.01758,-1.0390625 0,8.7363281 -2.51563,0 0,-2.324219 q -0.86133,1.394531 -2.14648,2.064453 -1.28516,0.65625 -3.14453,0.65625 -2.35157,0 -3.7461,-1.3125 -1.38086,-1.326172 -1.38086,-3.541015 0,-2.583985 1.72266,-3.8964846 1.73633,-1.3125 5.16797,-1.3125 l 3.52734,0 0,-0.2460938 q 0,-1.7363281 -1.14844,-2.6796875 -1.13476,-0.9570312 -3.19922,-0.9570312 -1.3125,0 -2.55664,0.3144531 -1.24414,0.3144531 -2.39257,0.9433594 l 0,-2.3242188 q 1.38086,-0.5332031 2.67968,-0.7929687 1.29883,-0.2734375 2.5293,-0.2734375 3.32227,0 4.96289,1.7226562 1.64063,1.7226563 1.64063,5.2226563 z" />
    <path
       id="path35"
       style=""
       d="m 185.08564,18.487875 q -1.06641,2.734375 -2.07813,3.568359 -1.01171,0.833985 -2.70703,0.833985 l -2.00976,0 0,-2.105469 1.47656,0 q 1.03906,0 1.61328,-0.492188 0.57422,-0.492187 1.27149,-2.324218 l 0.45117,-1.148438 -6.19336,-15.066406 2.66601,0 4.78516,11.976562 4.78516,-11.976562 2.66601,0 -6.72656,16.734375 z" />
    <path
       id="path37"
       style=""
       d="m 206.30439,2.3413906 0,2.3515625 q -1.06641,-0.5878906 -2.14648,-0.875 -1.06641,-0.3007812 -2.16016,-0.3007812 -2.44727,0 -3.80078,1.5585937 -1.35352,1.5449219 -1.35352,4.3476563 0,2.8027341 1.35352,4.3613281 1.35351,1.544922 3.80078,1.544922 1.09375,0 2.16016,-0.28711 1.08007,-0.300781 2.14648,-0.888671 l 0,2.324218 q -1.05273,0.492188 -2.1875,0.738282 -1.12109,0.246093 -2.39258,0.246093 -3.45898,0 -5.49609,-2.173828 -2.03711,-2.173828 -2.03711,-5.8652341 0,-3.7460938 2.05078,-5.8925782 2.06445,-2.1464843 5.64648,-2.1464843 1.16211,0 2.26954,0.2460937 1.10742,0.2324219 2.14648,0.7109375 z" />
    <path
       id="path39"
       style=""
       d="m 217.61103,9.3687344 q -3.04883,0 -4.22461,0.6972656 -1.17578,0.697266 -1.17578,2.378906 0,1.339844 0.875,2.132813 0.88867,0.779297 2.40625,0.779297 2.0918,0 3.34961,-1.476563 1.27148,-1.490234 1.27148,-3.9511718 l 0,-0.5605468 -2.50195,0 z m 5.01758,-1.0390625 0,8.7363281 -2.51563,0 0,-2.324219 q -0.86132,1.394531 -2.14648,2.064453 -1.28516,0.65625 -3.14453,0.65625 -2.35156,0 -3.7461,-1.3125 -1.38086,-1.326172 -1.38086,-3.541015 0,-2.583985 1.72266,-3.8964846 1.73633,-1.3125 5.16797,-1.3125 l 3.52734,0 0,-0.2460938 q 0,-1.7363281 -1.14843,-2.6796875 -1.13477,-0.9570312 -3.19922,-0.9570312 -1.3125,0 -2.55664,0.3144531 -1.24414,0.3144531 -2.39258,0.9433594 l 0,-2.3242188 q 1.38086,-0.5332031 2.67969,-0.7929687 1.29882,-0.2734375 2.52929,-0.2734375 3.32227,0 4.96289,1.7226562 1.64063,1.7226563 1.64063,5.2226563 z" />
    <path
       id="path41"
       style=""
       d="m 236.75166,4.1050625 q -0.42383,-0.2460938 -0.92969,-0.3554688 -0.49219,-0.1230468 -1.09375,-0.1230468 -2.13281,0 -3.28125,1.3945312 -1.13477,1.3808594 -1.13477,3.9785156 l 0,8.0664063 -2.52929,0 0,-15.3125 2.52929,0 0,2.3789062 q 0.79297,-1.3945312 2.06446,-2.0644531 1.27148,-0.6835937 3.08984,-0.6835937 0.25976,0 0.57422,0.041016 0.31445,0.027344 0.69726,0.095703 l 0.0137,2.5839844 z" />
    <path
       id="path43"
       style=""
       d="m 251.94111,8.7808437 0,1.2304683 -11.56641,0 q 0.16406,2.597657 1.5586,3.964844 1.4082,1.353516 3.91015,1.353516 1.44922,0 2.80274,-0.355469 1.36718,-0.355469 2.70703,-1.066406 l 0,2.378906 q -1.35352,0.574219 -2.77539,0.875 -1.42188,0.300781 -2.88477,0.300781 -3.66406,0 -5.81055,-2.132812 -2.13281,-2.132813 -2.13281,-5.7695314 0,-3.7597656 2.02344,-5.9609375 2.03711,-2.2148437 5.48242,-2.2148437 3.08985,0 4.88086,1.9960937 1.80469,1.9824219 1.80469,5.4003906 z m -2.51563,-0.7382812 q -0.0273,-2.0644531 -1.16211,-3.2949219 -1.12109,-1.2304687 -2.98046,-1.2304687 -2.10547,0 -3.37696,1.1894531 -1.25781,1.1894531 -1.44922,3.3496094 l 8.96875,-0.013672 z" />
  </g>
  <g
     id="text8"
     style="font-size:12px;font-family:Montserrat;letter-spacing:0;fill:#1a191c"
     transform="translate(0,91.428)">
    <path
       id="path46"
       style=""
       d="m 205.87132,26.318611 0,3.28711 1.48828,0 q 0.82618,0 1.27735,-0.427735 0.45117,-0.427734 0.45117,-1.21875 0,-0.785156 -0.45117,-1.21289 -0.45117,-0.427735 -1.27735,-0.427735 l -1.48828,0 z m -1.18359,-0.972656 2.67187,0 q 1.47071,0 2.22071,0.667969 0.75586,0.662109 0.75586,1.945312 0,1.294922 -0.75586,1.957031 -0.75,0.66211 -2.22071,0.66211 l -1.48828,0 0,3.515625 -1.18359,0 0,-8.748047 z" />
    <path
       id="path48"
       style=""
       d="m 211.57249,31.504158 0,-3.972656 1.07813,0 0,3.93164 q 0,0.931641 0.36328,1.400391 0.36328,0.462891 1.08984,0.462891 0.87305,0 1.37696,-0.556641 0.50976,-0.556641 0.50976,-1.517578 l 0,-3.720703 1.07813,0 0,6.5625 -1.07813,0 0,-1.007813 q -0.39257,0.597657 -0.91406,0.890625 -0.51562,0.28711 -1.20117,0.28711 -1.13086,0 -1.7168,-0.703125 -0.58594,-0.703125 -0.58594,-2.056641 z" />
    <path
       id="path50"
       style=""
       d="m 220.3557,33.109627 0,3.480469 -1.08399,0 0,-9.058594 1.08399,0 0,0.996094 q 0.33984,-0.585938 0.85547,-0.867188 0.52148,-0.287109 1.24218,-0.287109 1.19532,0 1.93946,0.949218 0.75,0.949219 0.75,2.496094 0,1.546875 -0.75,2.496094 -0.74414,0.949219 -1.93946,0.949219 -0.7207,0 -1.24218,-0.28125 -0.51563,-0.28711 -0.85547,-0.873047 z m 3.66797,-2.291016 q 0,-1.189453 -0.49219,-1.863281 -0.48633,-0.679688 -1.3418,-0.679688 -0.85547,0 -1.34765,0.679688 -0.48633,0.673828 -0.48633,1.863281 0,1.189453 0.48633,1.869141 0.49218,0.673828 1.34765,0.673828 0.85547,0 1.3418,-0.673828 0.49219,-0.679688 0.49219,-1.869141 z" />
    <path
       id="path52"
       style=""
       d="m 227.97289,33.109627 0,3.480469 -1.08399,0 0,-9.058594 1.08399,0 0,0.996094 q 0.33984,-0.585938 0.85546,-0.867188 0.52149,-0.287109 1.24219,-0.287109 1.19531,0 1.93945,0.949218 0.75,0.949219 0.75,2.496094 0,1.546875 -0.75,2.496094 -0.74414,0.949219 -1.93945,0.949219 -0.7207,0 -1.24219,-0.28125 -0.51562,-0.28711 -0.85546,-0.873047 z m 3.66796,-2.291016 q 0,-1.189453 -0.49218,-1.863281 -0.48633,-0.679688 -1.3418,-0.679688 -0.85547,0 -1.34766,0.679688 -0.48632,0.673828 -0.48632,1.863281 0,1.189453 0.48632,1.869141 0.49219,0.673828 1.34766,0.673828 0.85547,0 1.3418,-0.673828 0.49218,-0.679688 0.49218,-1.869141 z" />
    <path
       id="path54"
       style=""
       d="m 234.5471,27.531502 1.07813,0 0,6.5625 -1.07813,0 0,-6.5625 z m 0,-2.554688 1.07813,0 0,1.365235 -1.07813,0 0,-1.365235 z" />
    <path
       id="path56"
       style=""
       d="m 243.48851,30.543221 0,0.527343 -4.95703,0 q 0.0703,1.113282 0.66797,1.699219 0.60351,0.580078 1.67578,0.580078 0.62109,0 1.20117,-0.152344 0.58594,-0.152343 1.16016,-0.457031 l 0,1.019531 q -0.58008,0.246094 -1.18946,0.375 -0.60937,0.128907 -1.23632,0.128907 -1.57032,0 -2.49024,-0.914063 -0.91406,-0.914062 -0.91406,-2.472656 0,-1.611328 0.86719,-2.554688 0.87304,-0.949218 2.34961,-0.949218 1.32421,0 2.09179,0.855468 0.77344,0.84961 0.77344,2.314454 z m -1.07812,-0.316407 q -0.0117,-0.884765 -0.49805,-1.412109 -0.48047,-0.527344 -1.27735,-0.527344 -0.90234,0 -1.44726,0.509766 -0.53906,0.509765 -0.62109,1.435547 l 3.84375,-0.0059 z" />
    <path
       id="path58"
       style=""
       d="m 249.4182,27.724861 0,1.019531 q -0.45703,-0.234375 -0.94922,-0.351562 -0.49219,-0.117188 -1.01953,-0.117188 -0.80274,0 -1.20703,0.246094 -0.39844,0.246094 -0.39844,0.738281 0,0.375 0.28711,0.591797 0.28711,0.210938 1.1543,0.404297 l 0.36914,0.08203 q 1.14843,0.246094 1.6289,0.697266 0.48633,0.445313 0.48633,1.248047 0,0.914062 -0.72656,1.447266 -0.72071,0.533203 -1.98633,0.533203 -0.52734,0 -1.10156,-0.105469 -0.56836,-0.09961 -1.20117,-0.304688 l 0,-1.113281 q 0.59765,0.310547 1.17773,0.46875 0.58008,0.152344 1.14844,0.152344 0.76172,0 1.17187,-0.257813 0.41016,-0.263671 0.41016,-0.738281 0,-0.439453 -0.29883,-0.673828 -0.29297,-0.234375 -1.29492,-0.451172 l -0.375,-0.08789 q -1.00195,-0.210938 -1.44727,-0.644532 -0.44531,-0.439453 -0.44531,-1.201172 0,-0.925781 0.65625,-1.429687 0.65625,-0.503906 1.86328,-0.503906 0.59766,0 1.125,0.08789 0.52735,0.08789 0.97266,0.263672 z" />
  </g>
  <path
     id="path12"
     d="M45.154 121.22H196.51"
     stroke-width="5"
     stroke="#402a2c" />
</svg>
